<svg width="28" height="26" viewBox="0 0 28 26" fill="none" xmlns="http://www.w3.org/2000/svg">
<path d="M0.290059 7.70695C-0.0999414 7.31695 -0.0999414 6.68301 0.290059 6.29301L6.29006 0.293006C6.68006 -0.0979941 7.31998 -0.0979941 7.70998 0.293006C8.09998 0.683006 8.09998 1.31695 7.70998 1.70695L3.40993 5.99998H18C23.52 5.99998 28 10.477 28 16C28 21.523 23.52 26 18 26H2.00002C1.45002 26 1.00002 25.552 1.00002 25C1.00002 24.448 1.45002 24 2.00002 24H18C22.42 24 26 20.418 26 16C26 11.582 22.42 7.99998 18 7.99998H3.40993L7.70998 12.293C8.09998 12.683 8.09998 13.3169 7.70998 13.7069C7.31998 14.0979 6.68006 14.0979 6.29006 13.7069L0.290059 7.70695Z" fill="black"/>
</svg>
